<svg width="20" height="20" viewBox="0 0 20 20" fill="none" xmlns="http://www.w3.org/2000/svg">
<path d="M17.546 3.0179L1.20525 8.97681C1.14416 9.00396 1.09225 9.04825 1.05582 9.10431C1.01939 9.16036 1 9.22578 1 9.29263C1 9.35948 1.01939 9.4249 1.05582 9.48096C1.09225 9.53701 1.14416 9.5813 1.20525 9.60845L5.04311 11.3604L6.89053 16.5446C6.9103 16.5979 6.94615 16.6438 6.99313 16.6758C7.04011 16.7078 7.09589 16.7245 7.15274 16.7234H7.16466C7.22159 16.7217 7.27624 16.7007 7.31961 16.6638L10.2516 14.2802L8.35654 12.8501L14.4709 17.3193C14.5171 17.352 14.5706 17.3729 14.6268 17.3801C14.6829 17.3874 14.74 17.3807 14.793 17.3607C14.8459 17.3407 14.8932 17.3079 14.9306 17.2654C14.9679 17.2229 14.9942 17.1718 15.0072 17.1167L17.9989 3.38735C18.0059 3.32943 17.9982 3.27067 17.9764 3.21655C17.9546 3.16242 17.9195 3.11469 17.8742 3.07781C17.829 3.04093 17.7752 3.01609 17.7178 3.00562C17.6604 2.99514 17.6013 2.99937 17.546 3.0179ZM7.16466 15.4482L5.56754 11.1459L14.6378 5.59215L7.87979 12.5522C7.84907 12.5873 7.82485 12.6277 7.80828 12.6713L7.16466 15.4482Z" fill="white" fill-opacity="0.65"/>
</svg>
