<svg width="20" height="20" viewBox="0 0 20 20" fill="none" xmlns="http://www.w3.org/2000/svg">
<path d="M18 5.5C17.4 5.8 16.8 5.9 16.1 6C16.8 5.6 17.3 5 17.5 4.2C16.9 4.6 16.2 4.8 15.4 5C14.8 4.4 13.9 4 13 4C11.3 4 9.8 5.5 9.8 7.3C9.8 7.6 9.8 7.8 9.9 8C7.2 7.9 4.7 6.6 3.1 4.6C2.8 5.1 2.7 5.6 2.7 6.3C2.7 7.4 3.3 8.4 4.2 9C3.7 9 3.2 8.8 2.7 8.6C2.7 10.2 3.8 11.5 5.3 11.8C5 11.9 4.7 11.9 4.4 11.9C4.2 11.9 4 11.9 3.8 11.8C4.2 13.1 5.4 14.1 6.9 14.1C5.8 15 4.4 15.5 2.8 15.5C2.5 15.5 2.3 15.5 2 15.5C3.5 16.4 5.2 17 7 17C13 17 16.3 12 16.3 7.7C16.3 7.6 16.3 7.4 16.3 7.3C17 6.8 17.6 6.2 18 5.5Z" fill="white" fill-opacity="0.65"/>
</svg>
