<svg width="20" height="20" viewBox="0 0 20 20" fill="none" xmlns="http://www.w3.org/2000/svg">
<path d="M15.4961 2.00003C15.969 2.00342 16.4229 2.18646 16.7659 2.51205C17.1088 2.83764 17.3152 3.28142 17.3431 3.75347V19L15.4469 17.3898L14.4055 16.4418L13.2695 15.4516L13.7438 17.0132H3.79961C3.56559 17.0188 3.33282 16.9775 3.11496 16.8919C2.89709 16.8063 2.69852 16.678 2.5309 16.5146C2.36327 16.3512 2.22997 16.156 2.1388 15.9404C2.04764 15.7249 2.00045 15.4932 2 15.2592V3.75283C2.01056 3.28262 2.20545 2.83539 2.54268 2.50752C2.8799 2.17965 3.33246 1.99739 3.80281 2.00003H15.491H15.4961ZM11.1624 6.02725H11.1413L10.9981 6.16916C11.794 6.37045 12.5372 6.74112 13.1768 7.25587C12.3486 6.82928 11.4499 6.55638 10.5243 6.45042C9.94195 6.3798 9.35316 6.3798 8.77076 6.45042H8.62884C7.94127 6.5139 7.26876 6.68968 6.63808 6.97077C6.30756 7.11459 6.11769 7.20856 6.11769 7.20856C6.77175 6.66013 7.55406 6.28627 8.39166 6.12185L8.29577 6.02597C7.4013 6.05845 6.53984 6.37205 5.83385 6.92218C5.02437 8.45686 4.58643 10.1601 4.55526 11.8948C4.85609 12.3116 5.25613 12.6468 5.71916 12.87C6.18219 13.0933 6.69358 13.1975 7.20705 13.1733C7.20705 13.1733 7.49026 12.7955 7.7773 12.4638C7.17581 12.3092 6.64266 11.9594 6.26153 11.4691C6.34331 11.5117 6.42251 11.5591 6.49871 11.611H6.5409C6.54905 11.6113 6.55703 11.6133 6.56432 11.6169C6.5716 11.6206 6.57801 11.6257 6.5831 11.6321V11.6366C6.58809 11.643 6.59448 11.6483 6.60179 11.6519C6.60909 11.6556 6.61713 11.6576 6.62529 11.6577C6.85927 11.7542 7.09262 11.8495 7.2844 11.9409C7.69354 12.116 8.12149 12.2434 8.55979 12.3206C9.3131 12.4397 10.0805 12.4397 10.8338 12.3206C11.2707 12.2379 11.698 12.1108 12.1092 11.9415C12.4483 11.7856 12.7787 11.6113 13.0988 11.4192C12.7061 11.9198 12.1553 12.2725 11.5363 12.4197C11.7703 12.7495 12.0996 13.1279 12.0996 13.1279C12.6166 13.1271 13.1277 13.0178 13.5999 12.8072C14.0721 12.5965 14.4948 12.2892 14.8409 11.9051C14.8098 10.169 14.3704 8.46465 13.5584 6.92985C12.8601 6.38603 12.0096 6.07323 11.1253 6.03492L11.1649 6.02085L11.1624 6.02725ZM11.2813 9.15313C11.4706 9.1433 11.6586 9.19043 11.8209 9.28845C11.9833 9.38647 12.1125 9.53088 12.1919 9.70305C12.2714 9.87521 12.2974 10.0672 12.2666 10.2543C12.2359 10.4414 12.1498 10.615 12.0194 10.7527C11.889 10.8904 11.7204 10.9859 11.5352 11.0268C11.3501 11.0677 11.1569 11.0522 10.9806 10.9823C10.8044 10.9123 10.6531 10.7912 10.5464 10.6345C10.4396 10.4778 10.3823 10.2927 10.3818 10.103C10.3783 9.98157 10.3988 9.86061 10.4422 9.74708C10.4855 9.63355 10.5508 9.52969 10.6344 9.44144C10.7179 9.3532 10.8181 9.28231 10.9291 9.23284C11.0401 9.18337 11.1598 9.15628 11.2813 9.15313ZM8.06306 9.15313C8.25234 9.14394 8.44003 9.19164 8.60195 9.29007C8.76387 9.38851 8.89259 9.53317 8.97154 9.70543C9.05049 9.87768 9.07604 10.0696 9.04491 10.2565C9.01377 10.4434 8.92737 10.6167 8.79684 10.7541C8.66631 10.8915 8.49763 10.9866 8.31254 11.0272C8.12745 11.0678 7.93443 11.0521 7.75836 10.9821C7.58229 10.912 7.43123 10.7909 7.32465 10.6342C7.21807 10.4775 7.16086 10.2925 7.16038 10.103C7.15655 9.98134 7.17684 9.86008 7.22008 9.74625C7.26331 9.63242 7.32865 9.52827 7.41232 9.4398C7.49598 9.35132 7.59633 9.28028 7.70758 9.23075C7.81882 9.18122 7.93877 9.15419 8.06051 9.15122L8.06306 9.15313Z" fill="white" fill-opacity="0.65"/>
</svg>
